<svg xmlns="http://www.w3.org/2000/svg" xmlns:xlink="http://www.w3.org/1999/xlink" width="1280" zoomAndPan="magnify" viewBox="0 0 960 540.000001" height="720" preserveAspectRatio="xMidYMid meet" version="1.0"><defs><clipPath id="c4ad4faa0f"><path d="M 0.886719 0 L 959.113281 0 L 959.113281 539 L 0.886719 539 Z M 0.886719 0 " clip-rule="nonzero"/></clipPath><clipPath id="daba87cb79"><path d="M 339 214 L 648 214 L 648 508.332031 L 339 508.332031 Z M 339 214 " clip-rule="nonzero"/></clipPath></defs><g clip-path="url(#c4ad4faa0f)"><path fill="#ffffff" d="M 0.886719 0 L 959.113281 0 L 959.113281 546.488281 L 0.886719 546.488281 Z M 0.886719 0 " fill-opacity="1" fill-rule="nonzero"/><path fill="#ffffff" d="M 0.886719 0 L 959.113281 0 L 959.113281 539 L 0.886719 539 Z M 0.886719 0 " fill-opacity="1" fill-rule="nonzero"/><path fill="#dcc6e4" d="M 0.886719 0 L 959.113281 0 L 959.113281 539 L 0.886719 539 Z M 0.886719 0 " fill-opacity="1" fill-rule="nonzero"/></g><path fill="#45467e" d="M 560.246094 502.042969 L 409.566406 502.042969 L 409.566406 264.90625 L 560.238281 264.90625 Z M 560.246094 502.042969 " fill-opacity="1" fill-rule="nonzero"/><path fill="#45467e" d="M 540.210938 154.875 C 539.675781 172.503906 543.417969 192.265625 567.457031 214.695312 C 591.492188 237.125 563.722656 249.949219 563.722656 249.949219 L 466.484375 245.671875 C 466.484375 245.671875 384.160156 277.71875 378.855469 249.765625 C 373.554688 221.8125 401.832031 211.488281 413.585938 192.800781 C 425.339844 174.109375 417.328125 137.785156 426.988281 117.488281 C 436.644531 97.191406 467.546875 104.140625 467.546875 104.140625 C 522.578125 72.636719 540.710938 137.25 540.210938 154.875 Z M 540.210938 154.875 " fill-opacity="1" fill-rule="nonzero"/><path fill="#ce6946" d="M 464.875 191.996094 L 476.8125 191.375 C 476.8125 191.375 497.46875 173.191406 500.675781 198.140625 C 503.882812 223.085938 520.605469 224.484375 520.605469 224.484375 L 512.421875 268.992188 C 512.421875 268.992188 501.730469 278.609375 481.425781 278.960938 C 461.125 279.316406 451.15625 271.132812 451.15625 271.132812 L 442.964844 232.320312 C 454 230.542969 456.855469 200.003906 456.855469 200.003906 " fill-opacity="1" fill-rule="nonzero"/><g clip-path="url(#daba87cb79)"><path fill="#e9eaf6" d="M 442.972656 232.320312 C 442.972656 232.320312 454.730469 284.121094 457.933594 302.300781 C 461.140625 320.484375 462.214844 381.871094 459.535156 401.632812 C 456.855469 421.394531 455.792969 507.917969 455.792969 507.917969 L 376.722656 508.273438 L 381.707031 478.003906 C 359.269531 477.652344 350.722656 447.382812 345.015625 438.835938 C 339.3125 430.292969 341.101562 418.1875 340.03125 406.082031 C 338.957031 393.976562 340.382812 346.617188 343.953125 323.117188 C 347.523438 299.613281 371.714844 260.089844 378.855469 249.765625 C 385.996094 239.441406 403.074219 233.03125 418.390625 228.761719 C 433.707031 224.492188 454.011719 216.65625 454.011719 216.65625 C 451.683594 231.429688 442.972656 232.320312 442.972656 232.320312 Z M 520.605469 224.484375 L 512.421875 268.992188 C 512.421875 268.992188 505.292969 309.957031 505.292969 325.269531 C 505.292969 340.578125 505.65625 386.511719 506.71875 397.546875 C 507.78125 408.578125 508.496094 508.28125 508.496094 508.28125 L 609.632812 507.203125 L 593.246094 450.941406 C 603.925781 451.304688 629.9375 432.070312 638.839844 424.246094 C 647.742188 416.417969 649.875 404.300781 643.109375 369.046875 C 636.339844 333.792969 611.414062 264.742188 606.070312 256.175781 C 600.730469 247.613281 588.296875 238.734375 579.746094 236.273438 C 571.199219 233.8125 532.371094 221.316406 523.824219 218.089844 C 518.175781 216.09375 512.359375 215.023438 506.371094 214.886719 C 510.289062 222.351562 520.605469 224.484375 520.605469 224.484375 Z M 520.605469 224.484375 " fill-opacity="1" fill-rule="nonzero"/></g><path fill="#18253b" d="M 379.890625 491.984375 L 379.773438 491.984375 C 379.605469 491.953125 379.472656 491.867188 379.375 491.726562 C 379.277344 491.582031 379.246094 491.429688 379.277344 491.257812 L 388.851562 438.914062 C 388.882812 438.746094 388.972656 438.613281 389.113281 438.519531 C 389.253906 438.421875 389.410156 438.386719 389.578125 438.417969 C 389.746094 438.449219 389.878906 438.535156 389.976562 438.675781 C 390.074219 438.820312 390.105469 438.976562 390.074219 439.144531 L 380.503906 491.480469 C 380.476562 491.625 380.402344 491.746094 380.289062 491.84375 C 380.171875 491.9375 380.039062 491.984375 379.890625 491.984375 Z M 379.890625 491.984375 " fill-opacity="1" fill-rule="nonzero"/><path fill="#18253b" d="M 394.890625 387.832031 C 394.71875 387.824219 394.578125 387.753906 394.460938 387.628906 C 394.347656 387.5 394.292969 387.351562 394.296875 387.183594 L 395.90625 354.644531 L 389.460938 308.246094 C 389.441406 308.074219 389.480469 307.921875 389.585938 307.785156 C 389.691406 307.648438 389.828125 307.566406 390 307.546875 C 390.167969 307.523438 390.324219 307.5625 390.460938 307.667969 C 390.597656 307.773438 390.675781 307.910156 390.699219 308.082031 L 397.121094 354.542969 C 397.125 354.578125 397.125 354.617188 397.121094 354.65625 L 395.511719 387.238281 C 395.507812 387.40625 395.445312 387.546875 395.324219 387.664062 C 395.203125 387.78125 395.058594 387.835938 394.890625 387.832031 Z M 394.890625 387.832031 " fill-opacity="1" fill-rule="nonzero"/><path fill="#45467e" d="M 372.441406 432.609375 C 372.441406 432.609375 383.660156 408.042969 383.660156 435.316406 C 383.660156 462.589844 374.320312 467.363281 374.320312 467.363281 C 370.316406 452.90625 372.441406 432.609375 372.441406 432.609375 Z M 372.441406 432.609375 " fill-opacity="1" fill-rule="nonzero"/><path fill="#18253b" d="M 387.40625 290.089844 C 387.246094 290.089844 387.105469 290.035156 386.988281 289.929688 C 386.871094 289.824219 386.800781 289.695312 386.78125 289.535156 C 386.265625 284.820312 378.328125 250.300781 378.253906 249.910156 C 378.191406 249.734375 378.207031 249.566406 378.296875 249.40625 C 378.386719 249.246094 378.523438 249.144531 378.703125 249.101562 C 378.882812 249.058594 379.046875 249.09375 379.199219 249.199219 C 379.351562 249.304688 379.4375 249.449219 379.460938 249.632812 C 379.792969 251.058594 387.492188 284.609375 388.074219 289.402344 C 388.09375 289.574219 388.050781 289.726562 387.941406 289.863281 C 387.832031 289.996094 387.691406 290.074219 387.519531 290.089844 Z M 387.40625 290.089844 " fill-opacity="1" fill-rule="nonzero"/><path fill="#18253b" d="M 456.949219 495.601562 C 456.953125 495.773438 456.894531 495.921875 456.773438 496.046875 C 456.65625 496.167969 456.507812 496.230469 456.335938 496.234375 L 443.546875 496.558594 C 443.230469 502.960938 443.058594 506.789062 443.058594 506.921875 C 443.050781 507.089844 442.988281 507.230469 442.867188 507.34375 C 442.746094 507.460938 442.605469 507.515625 442.4375 507.515625 C 442.265625 507.511719 442.121094 507.445312 442.003906 507.316406 C 441.886719 507.191406 441.832031 507.039062 441.84375 506.867188 C 441.84375 506.730469 442.015625 502.933594 442.332031 496.589844 L 377.832031 497.910156 C 377.664062 497.90625 377.519531 497.847656 377.398438 497.726562 C 377.277344 497.609375 377.214844 497.464844 377.210938 497.296875 C 377.207031 497.125 377.265625 496.976562 377.386719 496.855469 C 377.503906 496.730469 377.652344 496.667969 377.824219 496.664062 L 442.410156 495.34375 C 443.242188 478.378906 444.972656 445.355469 447.195312 414.453125 C 450.238281 372.445312 440.160156 290.457031 439.25 283.183594 L 419.242188 274.0625 C 419.097656 273.996094 418.992188 273.886719 418.925781 273.738281 C 418.863281 273.589844 418.855469 273.441406 418.90625 273.289062 L 436.539062 222.015625 C 436.597656 221.851562 436.703125 221.734375 436.859375 221.660156 C 437.015625 221.585938 437.171875 221.574219 437.335938 221.632812 C 437.496094 221.6875 437.617188 221.796875 437.691406 221.949219 C 437.765625 222.105469 437.773438 222.265625 437.71875 222.425781 L 420.277344 273.144531 L 439.632812 281.96875 C 439.664062 281.960938 439.695312 281.960938 439.726562 281.96875 C 439.863281 281.949219 439.988281 281.972656 440.105469 282.039062 C 440.222656 282.109375 440.308594 282.203125 440.359375 282.332031 L 456.089844 289.5 C 456.21875 289.558594 456.320312 289.65625 456.382812 289.785156 C 456.449219 289.917969 456.464844 290.050781 456.433594 290.195312 C 456.402344 290.335938 456.332031 290.453125 456.21875 290.546875 C 456.105469 290.636719 455.976562 290.683594 455.828125 290.683594 C 455.738281 290.683594 455.652344 290.664062 455.570312 290.628906 L 440.582031 283.792969 C 441.941406 294.800781 451.398438 373.585938 448.441406 414.550781 C 446.210938 445.394531 444.484375 478.347656 443.652344 495.324219 L 456.367188 495.066406 C 456.515625 495.074219 456.644531 495.128906 456.753906 495.230469 C 456.863281 495.332031 456.929688 495.457031 456.949219 495.601562 Z M 607.007812 497.125 L 522.933594 495.316406 C 522.101562 478.359375 520.367188 445.316406 518.148438 414.386719 C 515.101562 372.378906 525.171875 290.386719 526.09375 283.117188 L 546.097656 273.996094 C 546.242188 273.929688 546.34375 273.828125 546.40625 273.683594 C 546.46875 273.542969 546.480469 273.398438 546.433594 273.25 L 530.292969 220.003906 C 530.246094 219.839844 530.144531 219.71875 529.992188 219.636719 C 529.839844 219.554688 529.683594 219.542969 529.519531 219.59375 C 529.355469 219.644531 529.234375 219.746094 529.152344 219.898438 C 529.074219 220.046875 529.058594 220.207031 529.109375 220.367188 L 545.074219 273.078125 L 525.691406 281.910156 C 525.660156 281.902344 525.632812 281.902344 525.605469 281.910156 C 525.46875 281.890625 525.34375 281.914062 525.226562 281.984375 C 525.109375 282.050781 525.023438 282.148438 524.972656 282.273438 L 509.246094 289.441406 C 509.078125 289.503906 508.960938 289.621094 508.894531 289.785156 C 508.824219 289.953125 508.828125 290.117188 508.902344 290.28125 C 508.976562 290.441406 509.101562 290.550781 509.269531 290.609375 C 509.441406 290.667969 509.601562 290.652344 509.761719 290.570312 L 524.753906 283.738281 C 523.394531 294.742188 513.933594 373.527344 516.894531 414.492188 C 519.125 445.355469 520.847656 478.332031 521.679688 495.304688 L 508.058594 495.011719 C 507.886719 495.011719 507.738281 495.070312 507.617188 495.191406 C 507.496094 495.3125 507.433594 495.460938 507.433594 495.632812 C 507.433594 495.804688 507.496094 495.949219 507.617188 496.070312 C 507.738281 496.191406 507.886719 496.253906 508.058594 496.253906 L 521.765625 496.550781 C 522.070312 502.921875 522.246094 506.742188 522.253906 506.875 C 522.261719 507.042969 522.324219 507.183594 522.445312 507.296875 C 522.566406 507.410156 522.710938 507.46875 522.875 507.46875 C 523.046875 507.460938 523.191406 507.394531 523.308594 507.265625 C 523.421875 507.140625 523.476562 506.992188 523.46875 506.820312 C 523.46875 506.683594 523.296875 502.90625 522.980469 496.578125 L 606.972656 498.386719 C 607.136719 498.386719 607.28125 498.328125 607.402344 498.210938 C 607.519531 498.09375 607.582031 497.953125 607.585938 497.785156 C 607.589844 497.617188 607.535156 497.472656 607.425781 497.347656 C 607.316406 497.226562 607.175781 497.15625 607.007812 497.144531 Z M 607.007812 497.125 " fill-opacity="1" fill-rule="nonzero"/><path fill="#18253b" d="M 613.460938 366.914062 C 613.460938 367.085938 613.394531 367.234375 613.273438 367.355469 C 613.148438 367.476562 613.003906 367.535156 612.828125 367.535156 C 601.390625 367.535156 597.027344 373.152344 596.011719 374.761719 C 603.8125 380.378906 611.328125 388.992188 611.699219 389.46875 C 611.8125 389.601562 611.863281 389.753906 611.847656 389.925781 C 611.832031 390.101562 611.761719 390.242188 611.628906 390.355469 C 611.496094 390.46875 611.34375 390.515625 611.171875 390.5 C 610.996094 390.488281 610.855469 390.414062 610.742188 390.28125 C 610.609375 390.128906 597.339844 374.894531 588.046875 371.777344 C 579.238281 368.847656 528.285156 377.027344 521.71875 378.101562 C 523.066406 382.722656 529.03125 403.289062 529.03125 404.835938 C 529.03125 405.007812 528.96875 405.15625 528.847656 405.277344 C 528.726562 405.398438 528.582031 405.460938 528.410156 405.460938 C 528.238281 405.460938 528.089844 405.398438 527.96875 405.277344 C 527.847656 405.15625 527.785156 405.007812 527.785156 404.835938 C 527.785156 403.652344 523.316406 387.996094 520.328125 377.765625 C 520.28125 377.589844 520.304688 377.425781 520.398438 377.269531 C 520.496094 377.105469 520.640625 377.011719 520.828125 376.980469 C 523.105469 376.597656 575.230469 367.96875 587.355469 370.28125 C 585.527344 363.804688 575.765625 328.570312 574.808594 309.757812 C 574.796875 309.585938 574.847656 309.4375 574.960938 309.308594 C 575.078125 309.179688 575.21875 309.113281 575.390625 309.105469 C 575.5625 309.101562 575.714844 309.15625 575.839844 309.269531 C 575.96875 309.382812 576.039062 309.527344 576.050781 309.699219 C 577.007812 329.277344 587.691406 366.925781 588.753906 370.675781 C 590.96875 371.523438 593.042969 372.632812 594.976562 374.003906 C 596.191406 372.089844 600.804688 366.253906 612.820312 366.253906 C 613.003906 366.25 613.15625 366.316406 613.285156 366.445312 C 613.410156 366.578125 613.46875 366.734375 613.460938 366.914062 Z M 572.757812 281.546875 L 572.921875 281.546875 C 573.089844 281.503906 573.21875 281.40625 573.304688 281.257812 C 573.390625 281.105469 573.410156 280.949219 573.363281 280.78125 C 573.296875 280.503906 566.144531 252.953125 580.175781 236.664062 C 580.289062 236.535156 580.339844 236.382812 580.328125 236.207031 C 580.3125 236.035156 580.238281 235.890625 580.105469 235.78125 C 579.972656 235.667969 579.820312 235.617188 579.648438 235.632812 C 579.476562 235.644531 579.332031 235.71875 579.21875 235.851562 C 564.746094 252.636719 572.070312 280.828125 572.144531 281.105469 C 572.1875 281.25 572.269531 281.359375 572.390625 281.445312 C 572.515625 281.527344 572.648438 281.5625 572.796875 281.546875 Z M 593.207031 450.332031 C 574.0625 451.480469 543.035156 446.589844 539.082031 445.949219 L 534.371094 424.464844 C 534.335938 424.296875 534.242188 424.164062 534.097656 424.074219 C 533.953125 423.980469 533.796875 423.949219 533.625 423.984375 C 533.457031 424.023438 533.328125 424.117188 533.238281 424.261719 C 533.144531 424.40625 533.117188 424.566406 533.15625 424.734375 L 537.941406 446.628906 C 538.003906 446.902344 538.171875 447.0625 538.449219 447.105469 C 538.757812 447.164062 566.382812 451.746094 586.839844 451.746094 C 589.082031 451.746094 591.242188 451.6875 593.261719 451.566406 C 593.433594 451.554688 593.574219 451.484375 593.6875 451.359375 C 593.800781 451.234375 593.855469 451.085938 593.847656 450.914062 C 593.835938 450.753906 593.773438 450.621094 593.65625 450.507812 C 593.542969 450.394531 593.402344 450.335938 593.246094 450.332031 Z M 593.207031 450.332031 " fill-opacity="1" fill-rule="nonzero"/><path fill="#45467e" d="M 531.136719 316.65625 C 531.734375 316.335938 532.375 316.203125 533.050781 316.253906 L 564.640625 315.546875 L 566.613281 319.449219 C 555.613281 320.394531 544.59375 320.664062 533.558594 320.265625 C 533.09375 320.273438 532.640625 320.203125 532.199219 320.0625 C 531.914062 319.9375 531.742188 319.726562 531.683594 319.421875 L 531.003906 317.238281 C 530.90625 317.011719 530.949219 316.816406 531.136719 316.65625 Z M 531.136719 316.65625 " fill-opacity="1" fill-rule="nonzero"/><path fill="#18253b" d="M 462.511719 359.59375 L 466.855469 336.320312 C 466.9375 335.894531 467.097656 335.5 467.335938 335.140625 C 467.574219 334.777344 467.875 334.476562 468.234375 334.230469 C 468.59375 333.988281 468.984375 333.824219 469.410156 333.738281 C 469.835938 333.652344 470.261719 333.652344 470.6875 333.738281 C 471.105469 333.824219 471.496094 333.988281 471.851562 334.230469 C 472.207031 334.472656 472.503906 334.773438 472.738281 335.128906 C 472.976562 335.488281 473.136719 335.878906 473.21875 336.300781 C 473.300781 336.722656 473.296875 337.144531 473.214844 337.566406 L 469.679688 354.453125 L 466.597656 353.8125 L 465.640625 360.1875 C 465.605469 360.402344 465.523438 360.597656 465.40625 360.78125 C 465.289062 360.964844 465.136719 361.113281 464.957031 361.234375 C 464.777344 361.355469 464.578125 361.4375 464.367188 361.476562 C 464.152344 361.519531 463.9375 361.515625 463.726562 361.46875 C 463.523438 361.421875 463.335938 361.339844 463.167969 361.21875 C 462.996094 361.097656 462.851562 360.953125 462.738281 360.777344 C 462.625 360.601562 462.550781 360.414062 462.511719 360.207031 C 462.472656 360.003906 462.472656 359.796875 462.511719 359.59375 Z M 462.511719 359.59375 " fill-opacity="1" fill-rule="nonzero"/><path fill="#e98357" d="M 470.753906 125.851562 C 481.4375 126.570312 484.289062 134.398438 488.941406 145.085938 C 493.59375 155.777344 506.746094 155.414062 512.453125 156.121094 C 518.15625 156.828125 523.84375 157.191406 524.5625 166.089844 C 523.117188 181.726562 509.933594 181.046875 509.933594 181.046875 C 509.933594 181.046875 498.53125 211.316406 472.886719 210.953125 C 434.425781 211.316406 442.621094 144.722656 442.621094 144.722656 C 463.277344 141.882812 470.753906 125.851562 470.753906 125.851562 Z M 470.753906 125.851562 " fill-opacity="1" fill-rule="nonzero"/><path fill="#18253b" d="M 450.515625 169.59375 C 450.417969 169.378906 450.363281 169.152344 450.355469 168.914062 C 450.347656 168.675781 450.386719 168.445312 450.46875 168.222656 C 450.554688 168 450.675781 167.804688 450.839844 167.628906 C 451 167.457031 451.191406 167.320312 451.40625 167.222656 C 451.621094 167.125 451.847656 167.070312 452.085938 167.0625 C 452.324219 167.054688 452.554688 167.09375 452.777344 167.179688 C 453 167.261719 453.195312 167.382812 453.371094 167.546875 C 453.542969 167.710938 453.679688 167.898438 453.777344 168.117188 C 453.875 168.332031 453.925781 168.558594 453.933594 168.796875 C 453.941406 169.035156 453.90625 169.261719 453.820312 169.484375 C 453.734375 169.707031 453.613281 169.90625 453.449219 170.078125 C 453.289062 170.25 453.097656 170.386719 452.882812 170.484375 C 452.664062 170.582031 452.4375 170.632812 452.203125 170.640625 C 451.964844 170.648438 451.738281 170.609375 451.515625 170.527344 C 451.292969 170.445312 451.097656 170.320312 450.921875 170.160156 C 450.75 169.996094 450.613281 169.808594 450.515625 169.59375 Z M 478.277344 171.277344 C 478.492188 171.179688 478.683594 171.046875 478.847656 170.871094 C 479.007812 170.699219 479.132812 170.5 479.214844 170.28125 C 479.300781 170.058594 479.339844 169.828125 479.332031 169.589844 C 479.324219 169.351562 479.269531 169.125 479.171875 168.910156 C 479.074219 168.691406 478.941406 168.503906 478.765625 168.339844 C 478.59375 168.179688 478.394531 168.054688 478.171875 167.972656 C 477.949219 167.886719 477.71875 167.851562 477.484375 167.859375 C 477.246094 167.867188 477.019531 167.917969 476.800781 168.015625 C 476.585938 168.117188 476.398438 168.25 476.234375 168.425781 C 476.070312 168.597656 475.949219 168.796875 475.867188 169.019531 C 475.78125 169.242188 475.746094 169.46875 475.753906 169.707031 C 475.761719 169.945312 475.8125 170.171875 475.914062 170.386719 C 476.011719 170.601562 476.144531 170.789062 476.316406 170.949219 C 476.488281 171.109375 476.683594 171.234375 476.902344 171.316406 C 477.121094 171.398438 477.347656 171.4375 477.582031 171.429688 C 477.820312 171.425781 478.042969 171.375 478.257812 171.277344 Z M 478.554688 187.699219 C 467.804688 196.933594 459.351562 189.535156 459 189.222656 C 458.867188 189.105469 458.710938 189.050781 458.535156 189.0625 C 458.359375 189.074219 458.214844 189.144531 458.097656 189.277344 C 457.980469 189.410156 457.929688 189.5625 457.941406 189.738281 C 457.953125 189.914062 458.023438 190.0625 458.15625 190.179688 C 459.503906 191.257812 460.996094 192.089844 462.625 192.667969 C 464.253906 193.246094 465.933594 193.542969 467.660156 193.554688 C 471.019531 193.554688 475.050781 192.386719 479.367188 188.675781 C 479.503906 188.566406 479.574219 188.425781 479.589844 188.253906 C 479.601562 188.082031 479.550781 187.933594 479.4375 187.804688 C 479.332031 187.65625 479.1875 187.574219 479.007812 187.554688 C 478.828125 187.53125 478.671875 187.582031 478.535156 187.699219 Z M 447.722656 154.933594 C 447.839844 154.933594 447.949219 154.902344 448.046875 154.839844 C 448.113281 154.839844 454.949219 150.703125 460.128906 154.425781 C 460.269531 154.527344 460.421875 154.5625 460.59375 154.535156 C 460.761719 154.507812 460.898438 154.421875 461 154.28125 C 461.097656 154.144531 461.136719 153.992188 461.109375 153.824219 C 461.078125 153.652344 460.996094 153.519531 460.855469 153.421875 C 454.988281 149.210938 447.703125 153.59375 447.394531 153.785156 C 447.25 153.875 447.15625 154 447.113281 154.167969 C 447.074219 154.335938 447.097656 154.492188 447.183594 154.636719 C 447.308594 154.832031 447.488281 154.933594 447.722656 154.933594 Z M 472.660156 154.933594 C 477.847656 151.210938 484.671875 155.308594 484.738281 155.34375 C 484.839844 155.410156 484.945312 155.441406 485.0625 155.441406 C 485.207031 155.441406 485.332031 155.402344 485.445312 155.316406 C 485.558594 155.234375 485.636719 155.125 485.671875 154.988281 C 485.710938 154.851562 485.703125 154.71875 485.652344 154.585938 C 485.597656 154.457031 485.511719 154.355469 485.390625 154.28125 C 485.082031 154.101562 477.789062 149.71875 471.929688 153.917969 C 471.789062 154.019531 471.707031 154.15625 471.675781 154.324219 C 471.648438 154.496094 471.683594 154.652344 471.785156 154.792969 C 471.886719 154.929688 472.023438 155.015625 472.191406 155.042969 C 472.363281 155.070312 472.519531 155.035156 472.65625 154.933594 Z M 510.078125 156.1875 L 486.816406 162.972656 L 486.816406 175.03125 C 486.816406 175.203125 486.753906 175.347656 486.632812 175.46875 C 486.511719 175.589844 486.367188 175.652344 486.195312 175.652344 L 468.589844 175.652344 C 468.417969 175.652344 468.265625 175.59375 468.144531 175.472656 C 468.019531 175.351562 467.957031 175.203125 467.957031 175.03125 L 467.957031 165.652344 C 466.777344 164.628906 465.40625 164.09375 463.84375 164.054688 C 462.980469 168.035156 461.925781 173.574219 462.433594 175.421875 C 462.980469 177.585938 467.066406 178.128906 468.597656 178.160156 C 468.769531 178.160156 468.917969 178.21875 469.039062 178.339844 C 469.160156 178.460938 469.222656 178.609375 469.222656 178.78125 C 469.222656 178.953125 469.160156 179.097656 469.039062 179.21875 C 468.917969 179.34375 468.769531 179.402344 468.597656 179.402344 C 468.332031 179.402344 462.148438 179.257812 461.246094 175.71875 C 460.710938 173.613281 461.746094 168.003906 462.550781 164.234375 C 461.695312 164.472656 460.945312 164.898438 460.300781 165.507812 C 460.214844 165.589844 460.117188 165.644531 460.003906 165.671875 L 460.003906 175.03125 C 460.003906 175.203125 459.941406 175.347656 459.820312 175.46875 C 459.699219 175.589844 459.554688 175.652344 459.382812 175.652344 L 441.765625 175.652344 C 441.597656 175.648438 441.453125 175.585938 441.332031 175.464844 C 441.214844 175.34375 441.15625 175.199219 441.15625 175.03125 L 441.15625 159.8125 C 441.15625 159.640625 441.214844 159.496094 441.335938 159.375 C 441.457031 159.253906 441.605469 159.191406 441.777344 159.191406 L 459.410156 159.191406 C 459.582031 159.191406 459.726562 159.253906 459.851562 159.375 C 459.972656 159.496094 460.03125 159.640625 460.03125 159.8125 L 460.03125 164.148438 C 460.878906 163.53125 461.816406 163.125 462.847656 162.933594 C 463.132812 161.621094 463.363281 160.722656 463.390625 160.597656 C 463.433594 160.433594 463.53125 160.304688 463.675781 160.21875 C 463.824219 160.128906 463.980469 160.109375 464.148438 160.148438 C 464.3125 160.191406 464.441406 160.285156 464.53125 160.433594 C 464.617188 160.582031 464.640625 160.738281 464.597656 160.90625 C 464.472656 161.414062 464.3125 162.082031 464.136719 162.820312 C 465.539062 162.878906 466.816406 163.308594 467.96875 164.109375 L 467.96875 159.8125 C 467.96875 159.640625 468.027344 159.496094 468.148438 159.375 C 468.269531 159.253906 468.417969 159.191406 468.589844 159.191406 L 486.222656 159.191406 C 486.394531 159.191406 486.542969 159.253906 486.664062 159.375 C 486.785156 159.496094 486.84375 159.640625 486.84375 159.8125 L 486.84375 161.726562 L 509.761719 155.03125 C 509.925781 154.980469 510.085938 155 510.234375 155.082031 C 510.386719 155.167969 510.484375 155.289062 510.53125 155.457031 C 510.578125 155.621094 510.5625 155.777344 510.476562 155.929688 C 510.394531 156.078125 510.269531 156.179688 510.105469 156.226562 Z M 458.75 160.4375 L 442.390625 160.4375 L 442.390625 174.417969 L 458.777344 174.417969 Z M 485.550781 160.4375 L 469.210938 160.4375 L 469.210938 174.417969 L 485.601562 174.417969 Z M 471.472656 196.886719 C 468.597656 198.484375 464.941406 196.886719 464.90625 196.886719 C 464.746094 196.816406 464.589844 196.8125 464.425781 196.875 C 464.265625 196.933594 464.152344 197.042969 464.082031 197.203125 C 464.011719 197.359375 464.007812 197.519531 464.070312 197.679688 C 464.128906 197.839844 464.238281 197.953125 464.398438 198.023438 C 465.707031 198.570312 467.074219 198.851562 468.492188 198.867188 C 469.765625 198.890625 470.957031 198.601562 472.074219 197.996094 C 472.226562 197.914062 472.328125 197.792969 472.375 197.625 C 472.421875 197.460938 472.402344 197.300781 472.3125 197.152344 C 472.238281 197.011719 472.121094 196.914062 471.96875 196.863281 C 471.816406 196.8125 471.667969 196.820312 471.519531 196.886719 Z M 471.472656 196.886719 " fill-opacity="1" fill-rule="nonzero"/><path fill="#18253b" d="M 539.753906 327.460938 L 539.40625 308.65625 C 539.402344 308.308594 539.464844 307.976562 539.59375 307.652344 C 539.722656 307.332031 539.90625 307.046875 540.152344 306.800781 C 540.394531 306.554688 540.675781 306.363281 540.992188 306.226562 C 541.3125 306.09375 541.644531 306.027344 541.992188 306.023438 C 542.335938 306.023438 542.664062 306.089844 542.980469 306.222656 C 543.296875 306.351562 543.578125 306.539062 543.820312 306.78125 C 544.0625 307.023438 544.25 307.304688 544.378906 307.621094 C 544.511719 307.9375 544.578125 308.265625 544.578125 308.609375 L 544.578125 316.023438 L 542.070312 316.023438 L 542.308594 327.410156 C 542.3125 327.582031 542.28125 327.746094 542.21875 327.902344 C 542.15625 328.058594 542.066406 328.199219 541.949219 328.320312 C 541.832031 328.441406 541.695312 328.539062 541.539062 328.605469 C 541.386719 328.675781 541.222656 328.710938 541.054688 328.714844 C 540.886719 328.714844 540.722656 328.683594 540.566406 328.621094 C 540.410156 328.558594 540.269531 328.46875 540.148438 328.351562 C 540.027344 328.234375 539.929688 328.097656 539.863281 327.945312 C 539.792969 327.789062 539.757812 327.628906 539.753906 327.460938 Z M 539.753906 327.460938 " fill-opacity="1" fill-rule="nonzero"/><path fill="#18253b" d="M 404.03125 307.269531 C 419.347656 305.011719 430.597656 303.910156 432.691406 304.054688 C 436.359375 304.320312 436.3125 343.996094 436.3125 343.996094 C 432.863281 347.191406 415.347656 348.578125 405.074219 347.652344 C 404.933594 333.402344 404.097656 321.066406 404.03125 307.269531 Z M 404.03125 307.269531 " fill-opacity="1" fill-rule="nonzero"/><path fill="#45467e" d="M 424.519531 311.71875 C 424.519531 311.71875 425.378906 318.207031 424.976562 320.734375 C 424.574219 323.257812 415.164062 322.148438 415.164062 322.148438 L 414.007812 312.3125 Z M 430.425781 326.492188 C 430.585938 326.472656 430.714844 326.394531 430.8125 326.265625 C 430.910156 326.132812 430.945312 325.984375 430.917969 325.824219 C 430.886719 325.660156 430.804688 325.535156 430.667969 325.445312 C 430.53125 325.355469 430.382812 325.328125 430.222656 325.363281 C 430.078125 325.363281 415.546875 327.890625 409.765625 327.144531 C 409.609375 327.121094 409.46875 327.15625 409.34375 327.253906 C 409.21875 327.347656 409.144531 327.476562 409.125 327.632812 C 409.105469 327.789062 409.144531 327.933594 409.242188 328.058594 C 409.335938 328.1875 409.464844 328.261719 409.621094 328.28125 C 410.578125 328.394531 411.535156 328.445312 412.496094 328.4375 C 419.203125 328.4375 429.898438 326.589844 430.425781 326.492188 Z M 430.929688 330.75 C 431.089844 330.726562 431.214844 330.644531 431.304688 330.515625 C 431.398438 330.382812 431.429688 330.238281 431.398438 330.082031 C 431.371094 329.925781 431.292969 329.804688 431.164062 329.714844 C 431.035156 329.625 430.894531 329.589844 430.738281 329.613281 C 430.585938 329.613281 416.066406 332.148438 410.28125 331.394531 C 410.125 331.371094 409.980469 331.410156 409.855469 331.507812 C 409.730469 331.605469 409.65625 331.734375 409.632812 331.890625 C 409.613281 332.046875 409.652344 332.1875 409.75 332.3125 C 409.84375 332.4375 409.972656 332.511719 410.128906 332.53125 C 411.082031 332.648438 412.039062 332.699219 413 332.683594 C 419.710938 332.683594 430.414062 330.835938 430.929688 330.75 Z M 430.84375 335.277344 C 431.003906 335.25 431.128906 335.171875 431.21875 335.042969 C 431.3125 334.910156 431.34375 334.765625 431.3125 334.609375 C 431.285156 334.453125 431.207031 334.332031 431.078125 334.242188 C 430.949219 334.148438 430.808594 334.117188 430.652344 334.140625 C 430.5 334.140625 415.980469 336.675781 410.195312 335.917969 C 410.039062 335.898438 409.894531 335.9375 409.769531 336.035156 C 409.644531 336.132812 409.566406 336.257812 409.546875 336.417969 C 409.527344 336.574219 409.566406 336.714844 409.664062 336.839844 C 409.757812 336.964844 409.886719 337.039062 410.042969 337.058594 C 410.996094 337.167969 411.957031 337.222656 412.914062 337.210938 C 419.625 337.210938 430.328125 335.363281 430.84375 335.277344 Z M 431.363281 339.527344 C 431.515625 339.496094 431.636719 339.417969 431.726562 339.289062 C 431.816406 339.164062 431.847656 339.019531 431.820312 338.867188 C 431.796875 338.710938 431.71875 338.585938 431.589844 338.492188 C 431.460938 338.402344 431.316406 338.367188 431.160156 338.398438 C 431.015625 338.398438 416.484375 340.933594 410.703125 340.175781 C 410.546875 340.15625 410.40625 340.195312 410.277344 340.289062 C 410.152344 340.386719 410.078125 340.511719 410.058594 340.671875 C 410.035156 340.828125 410.074219 340.96875 410.171875 341.09375 C 410.265625 341.222656 410.394531 341.296875 410.550781 341.316406 C 411.503906 341.429688 412.460938 341.480469 413.421875 341.46875 C 420.144531 341.46875 430.835938 339.621094 431.363281 339.527344 Z M 423.980469 302.140625 C 421.003906 302.4375 418.027344 302.4375 415.050781 302.140625 C 414.34375 302.0625 413.480469 302.042969 413.070312 302.628906 C 412.917969 302.875 412.828125 303.144531 412.800781 303.429688 C 412.605469 304.542969 412.496094 305.660156 412.476562 306.789062 C 412.414062 307.269531 412.519531 307.714844 412.78125 308.121094 C 413.289062 308.546875 413.867188 308.691406 414.515625 308.550781 C 417.71875 308.324219 420.886719 307.851562 424.019531 307.132812 C 424.355469 307.101562 424.621094 306.953125 424.824219 306.683594 C 424.921875 306.421875 424.921875 306.160156 424.824219 305.898438 C 424.535156 304.808594 424.394531 303.183594 424.03125 302.074219 " fill-opacity="1" fill-rule="nonzero"/><path fill="#e98357" d="M 441.902344 381.515625 C 441.902344 381.515625 439.414062 374.75 443.328125 372.972656 C 443.328125 372.972656 437.984375 364.0625 445.816406 361.574219 C 445.816406 361.574219 445.460938 352.3125 455.390625 352.3125 C 465.316406 352.3125 480.402344 355.890625 484.289062 359.078125 C 488.175781 362.261719 499.605469 380.800781 499.605469 380.800781 L 522.761719 387.210938 L 531.664062 416.761719 L 467.527344 403.949219 Z M 441.902344 381.515625 " fill-opacity="1" fill-rule="nonzero"/><path fill="#18253b" d="M 393.101562 402.167969 L 360.171875 381.019531 C 359.816406 380.796875 359.566406 380.488281 359.425781 380.09375 C 359.28125 379.699219 359.273438 379.300781 359.402344 378.902344 C 359.53125 378.503906 359.769531 378.1875 360.113281 377.949219 C 360.460938 377.710938 360.84375 377.605469 361.261719 377.632812 L 483.464844 384.511719 C 485.90625 384.652344 488.140625 385.410156 490.167969 386.78125 L 542.019531 421.84375 C 542.367188 422.074219 542.609375 422.386719 542.742188 422.785156 C 542.875 423.179688 542.871094 423.574219 542.734375 423.96875 C 542.601562 424.363281 542.359375 424.675781 542.007812 424.902344 C 541.660156 425.132812 541.277344 425.230469 540.863281 425.203125 L 442.601562 418.503906 L 397.023438 423.171875 Z M 393.101562 402.167969 " fill-opacity="1" fill-rule="nonzero"/><path fill="#e98357" d="M 378.855469 408.570312 C 378.855469 408.570312 410.523438 392.550781 415.546875 392.550781 C 420.574219 392.550781 420.535156 399.671875 412.339844 403.59375 C 404.148438 407.515625 401.648438 413.164062 405.574219 412.140625 C 409.5 411.117188 439.765625 401.449219 447.597656 401.8125 C 455.425781 402.175781 452.585938 406.789062 452.585938 406.789062 C 452.585938 406.789062 456.863281 405.726562 456.863281 409.289062 C 456.863281 412.847656 434.453125 422.820312 430.863281 424.953125 C 427.273438 427.085938 420.171875 436.351562 403.105469 437.777344 C 392.144531 438.84375 381.699219 441.75 371.761719 446.492188 C 371.761719 446.492188 371.378906 423.878906 378.855469 408.570312 Z M 378.855469 408.570312 " fill-opacity="1" fill-rule="nonzero"/><path fill="#18253b" d="M 377.074219 477.917969 C 376.789062 477.917969 376.59375 477.78125 376.492188 477.515625 C 376.339844 477.113281 361.300781 436.972656 381.527344 403.621094 C 381.617188 403.472656 381.746094 403.378906 381.914062 403.335938 C 382.082031 403.296875 382.242188 403.320312 382.386719 403.410156 C 382.53125 403.503906 382.625 403.628906 382.664062 403.796875 C 382.707031 403.960938 382.683594 404.117188 382.597656 404.261719 C 362.679688 437.097656 377.507812 476.675781 377.660156 477.066406 C 377.722656 477.230469 377.71875 477.386719 377.648438 477.546875 C 377.578125 477.703125 377.460938 477.8125 377.296875 477.871094 C 377.226562 477.902344 377.152344 477.917969 377.074219 477.917969 Z M 377.074219 477.917969 " fill-opacity="1" fill-rule="nonzero"/><path fill="#18253b" d="M 402.367188 421.480469 C 402.207031 421.472656 402.070312 421.414062 401.957031 421.300781 C 401.84375 421.191406 401.785156 421.054688 401.773438 420.894531 C 401.765625 420.738281 401.808594 420.597656 401.90625 420.472656 C 402.003906 420.347656 402.132812 420.269531 402.289062 420.246094 C 402.703125 420.1875 443.84375 415 452.132812 406.359375 C 452.257812 406.238281 452.402344 406.179688 452.574219 406.179688 C 452.746094 406.179688 452.894531 406.238281 453.015625 406.359375 C 453.136719 406.480469 453.195312 406.625 453.195312 406.792969 C 453.195312 406.964844 453.136719 407.109375 453.015625 407.230469 C 444.398438 416.195312 404.136719 421.277344 402.425781 421.488281 Z M 431.015625 425.554688 C 431.183594 425.511719 431.3125 425.417969 431.398438 425.269531 C 431.488281 425.121094 431.507812 424.964844 431.46875 424.800781 C 431.421875 424.632812 431.324219 424.503906 431.175781 424.417969 C 431.027344 424.328125 430.871094 424.308594 430.703125 424.351562 C 430.472656 424.417969 407.554688 430.359375 397.109375 428.789062 C 396.949219 428.78125 396.808594 428.828125 396.683594 428.929688 C 396.5625 429.03125 396.488281 429.160156 396.464844 429.320312 C 396.441406 429.476562 396.472656 429.625 396.5625 429.757812 C 396.652344 429.890625 396.773438 429.976562 396.929688 430.015625 C 398.363281 430.21875 399.804688 430.316406 401.257812 430.300781 C 412.722656 430.300781 430.183594 425.746094 431.015625 425.554688 Z M 483.464844 373.25 C 483.585938 373.125 483.644531 372.980469 483.644531 372.808594 C 483.644531 372.636719 483.585938 372.492188 483.464844 372.367188 C 483.246094 372.128906 477.988281 366.378906 474.160156 364.714844 C 470.332031 363.046875 446.839844 361.011719 445.835938 360.886719 C 445.664062 360.871094 445.515625 360.921875 445.382812 361.03125 C 445.253906 361.140625 445.179688 361.28125 445.164062 361.449219 C 445.152344 361.621094 445.199219 361.773438 445.308594 361.90625 C 445.417969 362.039062 445.558594 362.113281 445.730469 362.128906 C 445.96875 362.128906 470.074219 364.273438 473.671875 365.8125 C 477.273438 367.355469 482.488281 373.085938 482.546875 373.144531 C 482.667969 373.28125 482.824219 373.347656 483.007812 373.34375 C 483.171875 373.371094 483.324219 373.339844 483.464844 373.25 Z M 466.558594 375.527344 C 466.578125 375.355469 466.53125 375.207031 466.425781 375.070312 C 466.320312 374.9375 466.183594 374.859375 466.015625 374.835938 L 443.394531 372.351562 C 443.21875 372.320312 443.058594 372.359375 442.914062 372.464844 C 442.773438 372.574219 442.691406 372.71875 442.671875 372.894531 C 442.652344 373.074219 442.699219 373.230469 442.816406 373.367188 C 442.933594 373.503906 443.082031 373.574219 443.261719 373.585938 L 465.878906 376.082031 L 465.949219 376.082031 C 466.105469 376.082031 466.242188 376.027344 466.359375 375.921875 C 466.476562 375.816406 466.542969 375.683594 466.558594 375.527344 Z M 466.558594 375.527344 " fill-opacity="1" fill-rule="nonzero"/></svg>